solid OpenSCAD_Model
  facet normal -1 0 0
    outer loop
      vertex 0 0 0
      vertex 0 0 10
      vertex 0 1.5 1.5
    endloop
  endfacet
  facet normal -1 0 0
    outer loop
      vertex 0 0 0
      vertex 0 1.5 1.5
      vertex 0 48 0
    endloop
  endfacet
  facet normal -1 0 0
    outer loop
      vertex 0 17.5 10
      vertex 0 48 0
      vertex 0 17.5 1.5
    endloop
  endfacet
  facet normal -1 0 0
    outer loop
      vertex 0 1.5 1.5
      vertex 0 17.5 1.5
      vertex 0 48 0
    endloop
  endfacet
  facet normal -1 0 0
    outer loop
      vertex 0 48 0
      vertex 0 17.5 10
      vertex 0 48 10
    endloop
  endfacet
  facet normal -1 0 0
    outer loop
      vertex 0 1.5 1.5
      vertex 0 0 10
      vertex 0 1.5 10
    endloop
  endfacet
  facet normal 0 -1 0
    outer loop
      vertex 0 0 10
      vertex 0 0 0
      vertex 69 0 0
    endloop
  endfacet
  facet normal 0 -1 0
    outer loop
      vertex 69 0 10
      vertex 0 0 10
      vertex 69 0 0
    endloop
  endfacet
  facet normal 0 0 -1
    outer loop
      vertex 0 0 0
      vertex 0 48 0
      vertex 69 0 0
    endloop
  endfacet
  facet normal 0 0 -1
    outer loop
      vertex 69 0 0
      vertex 0 48 0
      vertex 69 48 0
    endloop
  endfacet
  facet normal 0 1 0
    outer loop
      vertex 0 48 0
      vertex 0 48 10
      vertex 69 48 0
    endloop
  endfacet
  facet normal 0 1 0
    outer loop
      vertex 69 48 0
      vertex 0 48 10
      vertex 69 48 10
    endloop
  endfacet
  facet normal 0 0 1
    outer loop
      vertex 0 1.5 10
      vertex 0 0 10
      vertex 69 0 10
    endloop
  endfacet
  facet normal 0 0 1
    outer loop
      vertex 67.5 1.5 10
      vertex 0 1.5 10
      vertex 69 0 10
    endloop
  endfacet
  facet normal 0 0 1
    outer loop
      vertex 0 48 10
      vertex 1.5 46.5 10
      vertex 69 48 10
    endloop
  endfacet
  facet normal 0 0 1
    outer loop
      vertex 0 48 10
      vertex 0 17.5 10
      vertex 1.5 46.5 10
    endloop
  endfacet
  facet normal 0 0 1
    outer loop
      vertex 69 48 10
      vertex 67.5 46.5 10
      vertex 69 0 10
    endloop
  endfacet
  facet normal 0 0 1
    outer loop
      vertex 67.5 46.5 10
      vertex 67.5 1.5 10
      vertex 69 0 10
    endloop
  endfacet
  facet normal 0 0 1
    outer loop
      vertex 1.5 17.5 10
      vertex 1.5 46.5 10
      vertex 0 17.5 10
    endloop
  endfacet
  facet normal 0 0 1
    outer loop
      vertex 1.5 46.5 10
      vertex 67.5 46.5 10
      vertex 69 48 10
    endloop
  endfacet
  facet normal 0 -1 0
    outer loop
      vertex 1.5 17.5 1.5
      vertex 1.5 17.5 10
      vertex 0 17.5 10
    endloop
  endfacet
  facet normal 0 -1 0
    outer loop
      vertex 0 17.5 1.5
      vertex 1.5 17.5 1.5
      vertex 0 17.5 10
    endloop
  endfacet
  facet normal 0 0 1
    outer loop
      vertex 67.5 1.5 1.5
      vertex 67.5 46.5 1.5
      vertex 1.5 46.5 1.5
    endloop
  endfacet
  facet normal 0 0 1
    outer loop
      vertex 0 17.5 1.5
      vertex 67.5 1.5 1.5
      vertex 1.5 17.5 1.5
    endloop
  endfacet
  facet normal 0 0 1
    outer loop
      vertex 1.5 17.5 1.5
      vertex 67.5 1.5 1.5
      vertex 1.5 46.5 1.5
    endloop
  endfacet
  facet normal 0 0 1
    outer loop
      vertex 0 1.5 1.5
      vertex 67.5 1.5 1.5
      vertex 0 17.5 1.5
    endloop
  endfacet
  facet normal 0 1 0
    outer loop
      vertex 67.5 1.5 10
      vertex 67.5 1.5 1.5
      vertex 0 1.5 10
    endloop
  endfacet
  facet normal 0 1 0
    outer loop
      vertex 0 1.5 10
      vertex 67.5 1.5 1.5
      vertex 0 1.5 1.5
    endloop
  endfacet
  facet normal 1 0 0
    outer loop
      vertex 69 0 10
      vertex 69 0 0
      vertex 69 48 0
    endloop
  endfacet
  facet normal 1 0 0
    outer loop
      vertex 69 48 10
      vertex 69 0 10
      vertex 69 48 0
    endloop
  endfacet
  facet normal -1 0 0
    outer loop
      vertex 67.5 46.5 10
      vertex 67.5 46.5 1.5
      vertex 67.5 1.5 10
    endloop
  endfacet
  facet normal -1 0 0
    outer loop
      vertex 67.5 1.5 10
      vertex 67.5 46.5 1.5
      vertex 67.5 1.5 1.5
    endloop
  endfacet
  facet normal 0 -1 0
    outer loop
      vertex 67.5 46.5 1.5
      vertex 67.5 46.5 10
      vertex 1.5 46.5 10
    endloop
  endfacet
  facet normal 0 -1 0
    outer loop
      vertex 1.5 46.5 1.5
      vertex 67.5 46.5 1.5
      vertex 1.5 46.5 10
    endloop
  endfacet
  facet normal 1 0 0
    outer loop
      vertex 1.5 46.5 1.5
      vertex 1.5 46.5 10
      vertex 1.5 17.5 10
    endloop
  endfacet
  facet normal 1 0 0
    outer loop
      vertex 1.5 17.5 1.5
      vertex 1.5 46.5 1.5
      vertex 1.5 17.5 10
    endloop
  endfacet
endsolid OpenSCAD_Model
