solid OpenSCAD_Model
  facet normal -1 0 0
    outer loop
      vertex -15 -18 -4.5
      vertex -15 -18 4.5
      vertex -15 18 -4.5
    endloop
  endfacet
  facet normal -1 0 0
    outer loop
      vertex -15 18 -4.5
      vertex -15 -18 4.5
      vertex -15 18 4.5
    endloop
  endfacet
  facet normal 0 -1 0
    outer loop
      vertex -15 -18 4.5
      vertex -15 -18 -4.5
      vertex 15 -18 -4.5
    endloop
  endfacet
  facet normal 0 -1 0
    outer loop
      vertex 15 -18 4.5
      vertex -15 -18 4.5
      vertex 15 -18 -4.5
    endloop
  endfacet
  facet normal 0 0 -1
    outer loop
      vertex -15 -18 -4.5
      vertex -15 18 -4.5
      vertex 15 -18 -4.5
    endloop
  endfacet
  facet normal 0 0 -1
    outer loop
      vertex 15 -18 -4.5
      vertex -15 18 -4.5
      vertex 15 18 -4.5
    endloop
  endfacet
  facet normal 0 1 0
    outer loop
      vertex -15 18 -4.5
      vertex -15 18 4.5
      vertex 15 18 -4.5
    endloop
  endfacet
  facet normal 0 1 0
    outer loop
      vertex 15 18 -4.5
      vertex -15 18 4.5
      vertex 15 18 4.5
    endloop
  endfacet
  facet normal 0 0 1
    outer loop
      vertex -14 -17 4.5
      vertex -15 -18 4.5
      vertex 15 -18 4.5
    endloop
  endfacet
  facet normal 0 0 1
    outer loop
      vertex 14 -17 4.5
      vertex -14 -17 4.5
      vertex 15 -18 4.5
    endloop
  endfacet
  facet normal 0 0 1
    outer loop
      vertex -15 18 4.5
      vertex -15 -18 4.5
      vertex -14 -17 4.5
    endloop
  endfacet
  facet normal 0 0 1
    outer loop
      vertex 15 18 4.5
      vertex -15 18 4.5
      vertex -14 17 4.5
    endloop
  endfacet
  facet normal 0 0 1
    outer loop
      vertex 15 18 4.5
      vertex 14 17 4.5
      vertex 15 -18 4.5
    endloop
  endfacet
  facet normal 0 0 1
    outer loop
      vertex 15 18 4.5
      vertex -14 17 4.5
      vertex 14 17 4.5
    endloop
  endfacet
  facet normal 0 0 1
    outer loop
      vertex 14 17 4.5
      vertex 14 -17 4.5
      vertex 15 -18 4.5
    endloop
  endfacet
  facet normal 0 0 1
    outer loop
      vertex -14 -17 4.5
      vertex -14 17 4.5
      vertex -15 18 4.5
    endloop
  endfacet
  facet normal 1 0 0
    outer loop
      vertex 15 -18 4.5
      vertex 15 -18 -4.5
      vertex 15 18 -4.5
    endloop
  endfacet
  facet normal 1 0 0
    outer loop
      vertex 15 18 4.5
      vertex 15 -18 4.5
      vertex 15 18 -4.5
    endloop
  endfacet
  facet normal 1 0 0
    outer loop
      vertex -14 17 -0.3
      vertex -14 17 4.5
      vertex -14 -17 4.5
    endloop
  endfacet
  facet normal 1 0 0
    outer loop
      vertex -14 -17 -0.3
      vertex -14 17 -0.3
      vertex -14 -17 4.5
    endloop
  endfacet
  facet normal 0 1 0
    outer loop
      vertex 14 -17 4.5
      vertex 14 -17 -0.3
      vertex -14 -17 4.5
    endloop
  endfacet
  facet normal 0 1 0
    outer loop
      vertex -14 -17 4.5
      vertex 14 -17 -0.3
      vertex -14 -17 -0.3
    endloop
  endfacet
  facet normal -1 0 0
    outer loop
      vertex 14 17 4.5
      vertex 14 17 -0.3
      vertex 14 -17 4.5
    endloop
  endfacet
  facet normal -1 0 0
    outer loop
      vertex 14 -17 4.5
      vertex 14 17 -0.3
      vertex 14 -17 -0.3
    endloop
  endfacet
  facet normal 0 -1 0
    outer loop
      vertex -4 17 -0.3
      vertex -4 17 -4.4
      vertex -2 17 -4.4
    endloop
  endfacet
  facet normal 0 -1 0
    outer loop
      vertex 14 17 4.5
      vertex -4 17 -0.3
      vertex -2 17 -0.3
    endloop
  endfacet
  facet normal 0 -1 0
    outer loop
      vertex -2 17 -0.3
      vertex -4 17 -0.3
      vertex -2 17 -4.4
    endloop
  endfacet
  facet normal 0 -1 0
    outer loop
      vertex 14 17 4.5
      vertex -2 17 -0.3
      vertex 14 17 -0.3
    endloop
  endfacet
  facet normal 0 -1 0
    outer loop
      vertex -14 17 4.5
      vertex -4 17 -0.3
      vertex 14 17 4.5
    endloop
  endfacet
  facet normal 0 -1 0
    outer loop
      vertex -14 17 -0.3
      vertex -4 17 -0.3
      vertex -14 17 4.5
    endloop
  endfacet
  facet normal 0 0 1
    outer loop
      vertex 1.14981 10.9397 -0.3
      vertex 14 17 -0.3
      vertex -2 17 -0.3
    endloop
  endfacet
  facet normal 0 0 1
    outer loop
      vertex -2 10.759 -0.3
      vertex -1.14981 10.9397 -0.3
      vertex -2 17 -0.3
    endloop
  endfacet
  facet normal 0 0 1
    outer loop
      vertex 3.39919 10.4616 -0.3
      vertex 14 17 -0.3
      vertex 1.14981 10.9397 -0.3
    endloop
  endfacet
  facet normal 0 0 1
    outer loop
      vertex 5.5 9.52628 -0.3
      vertex 14 17 -0.3
      vertex 3.39919 10.4616 -0.3
    endloop
  endfacet
  facet normal 0 0 1
    outer loop
      vertex 8.89919 -6.46564 -0.3
      vertex 7.36044 -8.17459 -0.3
      vertex 14 -17 -0.3
    endloop
  endfacet
  facet normal 0 0 1
    outer loop
      vertex 7.36044 8.17459 -0.3
      vertex 14 17 -0.3
      vertex 5.5 9.52628 -0.3
    endloop
  endfacet
  facet normal 0 0 1
    outer loop
      vertex 8.89919 6.46564 -0.3
      vertex 14 17 -0.3
      vertex 7.36044 8.17459 -0.3
    endloop
  endfacet
  facet normal 0 0 1
    outer loop
      vertex 10.049 4.4741 -0.3
      vertex 14 17 -0.3
      vertex 8.89919 6.46564 -0.3
    endloop
  endfacet
  facet normal 0 0 1
    outer loop
      vertex 10.7596 -2.28703 -0.3
      vertex 10.049 -4.4741 -0.3
      vertex 14 -17 -0.3
    endloop
  endfacet
  facet normal 0 0 1
    outer loop
      vertex 10.7596 2.28703 -0.3
      vertex 14 17 -0.3
      vertex 10.049 4.4741 -0.3
    endloop
  endfacet
  facet normal 0 0 1
    outer loop
      vertex 14 -17 -0.3
      vertex 14 17 -0.3
      vertex 10.7596 2.28703 -0.3
    endloop
  endfacet
  facet normal 0 0 1
    outer loop
      vertex 14 -17 -0.3
      vertex 10.7596 2.28703 -0.3
      vertex 11 0 -0.3
    endloop
  endfacet
  facet normal 0 0 1
    outer loop
      vertex 11 0 -0.3
      vertex 10.7596 -2.28703 -0.3
      vertex 14 -17 -0.3
    endloop
  endfacet
  facet normal 0 0 1
    outer loop
      vertex 5.5 -9.52628 -0.3
      vertex 14 -17 -0.3
      vertex 7.36044 -8.17459 -0.3
    endloop
  endfacet
  facet normal 0 0 1
    outer loop
      vertex 3.39919 -10.4616 -0.3
      vertex 14 -17 -0.3
      vertex 5.5 -9.52628 -0.3
    endloop
  endfacet
  facet normal 0 0 1
    outer loop
      vertex 1.14981 -10.9397 -0.3
      vertex 14 -17 -0.3
      vertex 3.39919 -10.4616 -0.3
    endloop
  endfacet
  facet normal 0 0 1
    outer loop
      vertex -1.14981 -10.9397 -0.3
      vertex 14 -17 -0.3
      vertex 1.14981 -10.9397 -0.3
    endloop
  endfacet
  facet normal 0 0 1
    outer loop
      vertex -3.39919 -10.4616 -0.3
      vertex 14 -17 -0.3
      vertex -1.14981 -10.9397 -0.3
    endloop
  endfacet
  facet normal 0 0 1
    outer loop
      vertex -14 -17 -0.3
      vertex 14 -17 -0.3
      vertex -3.39919 -10.4616 -0.3
    endloop
  endfacet
  facet normal 0 0 1
    outer loop
      vertex -14 -17 -0.3
      vertex -3.39919 -10.4616 -0.3
      vertex -5.5 -9.52628 -0.3
    endloop
  endfacet
  facet normal 0 0 1
    outer loop
      vertex -14 -17 -0.3
      vertex -5.5 -9.52628 -0.3
      vertex -7.36044 -8.17459 -0.3
    endloop
  endfacet
  facet normal 0 0 1
    outer loop
      vertex -7.36044 8.17459 -0.3
      vertex -4 17 -0.3
      vertex -8.89919 6.46564 -0.3
    endloop
  endfacet
  facet normal 0 0 1
    outer loop
      vertex -14 -17 -0.3
      vertex -7.36044 -8.17459 -0.3
      vertex -8.89919 -6.46564 -0.3
    endloop
  endfacet
  facet normal 0 0 1
    outer loop
      vertex -5.5 9.52628 -0.3
      vertex -4 17 -0.3
      vertex -7.36044 8.17459 -0.3
    endloop
  endfacet
  facet normal 0 0 1
    outer loop
      vertex -14 -17 -0.3
      vertex -8.89919 -6.46564 -0.3
      vertex -10.049 -4.4741 -0.3
    endloop
  endfacet
  facet normal 0 0 1
    outer loop
      vertex -4 10.1941 -0.3
      vertex -4 17 -0.3
      vertex -5.5 9.52628 -0.3
    endloop
  endfacet
  facet normal 0 0 1
    outer loop
      vertex -14 17 -0.3
      vertex -14 -17 -0.3
      vertex -10.7596 -2.28703 -0.3
    endloop
  endfacet
  facet normal 0 0 1
    outer loop
      vertex -14 17 -0.3
      vertex -10.7596 -2.28703 -0.3
      vertex -11 0 -0.3
    endloop
  endfacet
  facet normal 0 0 1
    outer loop
      vertex -14 17 -0.3
      vertex -11 0 -0.3
      vertex -10.7596 2.28703 -0.3
    endloop
  endfacet
  facet normal 0 0 1
    outer loop
      vertex -14 17 -0.3
      vertex -10.7596 2.28703 -0.3
      vertex -10.049 4.4741 -0.3
    endloop
  endfacet
  facet normal 0 0 1
    outer loop
      vertex -4 17 -0.3
      vertex -10.049 4.4741 -0.3
      vertex -8.89919 6.46564 -0.3
    endloop
  endfacet
  facet normal 0 0 1
    outer loop
      vertex -14 17 -0.3
      vertex -10.049 4.4741 -0.3
      vertex -4 17 -0.3
    endloop
  endfacet
  facet normal 0 0 1
    outer loop
      vertex -10.7596 -2.28703 -0.3
      vertex -14 -17 -0.3
      vertex -10.049 -4.4741 -0.3
    endloop
  endfacet
  facet normal 0 0 1
    outer loop
      vertex -1.14981 10.9397 -0.3
      vertex 1.14981 10.9397 -0.3
      vertex -2 17 -0.3
    endloop
  endfacet
  facet normal 0 0 1
    outer loop
      vertex 10.049 -4.4741 -0.3
      vertex 8.89919 -6.46564 -0.3
      vertex 14 -17 -0.3
    endloop
  endfacet
  facet normal 1 0 0
    outer loop
      vertex -4 17 -4.4
      vertex -4 17 -0.3
      vertex -4 10.1941 -0.3
    endloop
  endfacet
  facet normal 1 0 0
    outer loop
      vertex -4 10.1941 -4.4
      vertex -4 17 -4.4
      vertex -4 10.1941 -0.3
    endloop
  endfacet
  facet normal -1 0 0
    outer loop
      vertex -2 17 -0.3
      vertex -2 17 -4.4
      vertex -2 10.759 -0.3
    endloop
  endfacet
  facet normal -1 0 0
    outer loop
      vertex -2 10.759 -0.3
      vertex -2 17 -4.4
      vertex -2 10.759 -4.4
    endloop
  endfacet
  facet normal 0 0 1
    outer loop
      vertex -10.7596 -2.28703 -4.4
      vertex -10.049 -4.4741 -4.4
      vertex -8.89919 -6.46564 -4.4
    endloop
  endfacet
  facet normal 0 0 1
    outer loop
      vertex -5.5 -9.52628 -4.4
      vertex -10.7596 -2.28703 -4.4
      vertex -7.36044 -8.17459 -4.4
    endloop
  endfacet
  facet normal 0 0 1
    outer loop
      vertex -7.36044 -8.17459 -4.4
      vertex -10.7596 -2.28703 -4.4
      vertex -8.89919 -6.46564 -4.4
    endloop
  endfacet
  facet normal 0 0 1
    outer loop
      vertex -3.39919 -10.4616 -4.4
      vertex -10.7596 -2.28703 -4.4
      vertex -5.5 -9.52628 -4.4
    endloop
  endfacet
  facet normal 0 0 1
    outer loop
      vertex -1.14981 -10.9397 -4.4
      vertex -10.7596 -2.28703 -4.4
      vertex -3.39919 -10.4616 -4.4
    endloop
  endfacet
  facet normal 0 0 1
    outer loop
      vertex 1.14981 -10.9397 -4.4
      vertex -10.7596 -2.28703 -4.4
      vertex -1.14981 -10.9397 -4.4
    endloop
  endfacet
  facet normal 0 0 1
    outer loop
      vertex 3.39919 -10.4616 -4.4
      vertex -10.7596 -2.28703 -4.4
      vertex 1.14981 -10.9397 -4.4
    endloop
  endfacet
  facet normal 0 0 1
    outer loop
      vertex 5.5 -9.52628 -4.4
      vertex -10.7596 -2.28703 -4.4
      vertex 3.39919 -10.4616 -4.4
    endloop
  endfacet
  facet normal 0 0 1
    outer loop
      vertex 7.36044 -8.17459 -4.4
      vertex -10.7596 -2.28703 -4.4
      vertex 5.5 -9.52628 -4.4
    endloop
  endfacet
  facet normal 0 0 1
    outer loop
      vertex 8.89919 -6.46564 -4.4
      vertex -10.7596 -2.28703 -4.4
      vertex 7.36044 -8.17459 -4.4
    endloop
  endfacet
  facet normal 0 0 1
    outer loop
      vertex 10.049 -4.4741 -4.4
      vertex -10.7596 -2.28703 -4.4
      vertex 8.89919 -6.46564 -4.4
    endloop
  endfacet
  facet normal 0 0 1
    outer loop
      vertex 10.7596 -2.28703 -4.4
      vertex -10.7596 -2.28703 -4.4
      vertex 10.049 -4.4741 -4.4
    endloop
  endfacet
  facet normal 0 0 1
    outer loop
      vertex 11 0 -4.4
      vertex -10.7596 -2.28703 -4.4
      vertex 10.7596 -2.28703 -4.4
    endloop
  endfacet
  facet normal 0 0 1
    outer loop
      vertex 10.7596 2.28703 -4.4
      vertex -10.7596 -2.28703 -4.4
      vertex 11 0 -4.4
    endloop
  endfacet
  facet normal 0 0 1
    outer loop
      vertex 10.049 4.4741 -4.4
      vertex -10.7596 -2.28703 -4.4
      vertex 10.7596 2.28703 -4.4
    endloop
  endfacet
  facet normal 0 0 1
    outer loop
      vertex 8.89919 6.46564 -4.4
      vertex -10.7596 -2.28703 -4.4
      vertex 10.049 4.4741 -4.4
    endloop
  endfacet
  facet normal 0 0 1
    outer loop
      vertex 7.36044 8.17459 -4.4
      vertex -10.7596 -2.28703 -4.4
      vertex 8.89919 6.46564 -4.4
    endloop
  endfacet
  facet normal 0 0 1
    outer loop
      vertex 5.5 9.52628 -4.4
      vertex -10.7596 -2.28703 -4.4
      vertex 7.36044 8.17459 -4.4
    endloop
  endfacet
  facet normal 0 0 1
    outer loop
      vertex 3.39919 10.4616 -4.4
      vertex -10.7596 -2.28703 -4.4
      vertex 5.5 9.52628 -4.4
    endloop
  endfacet
  facet normal 0 0 1
    outer loop
      vertex 1.14981 10.9397 -4.4
      vertex -10.7596 -2.28703 -4.4
      vertex 3.39919 10.4616 -4.4
    endloop
  endfacet
  facet normal 0 0 1
    outer loop
      vertex -1.14981 10.9397 -4.4
      vertex -10.7596 -2.28703 -4.4
      vertex 1.14981 10.9397 -4.4
    endloop
  endfacet
  facet normal 0 0 1
    outer loop
      vertex -2 10.759 -4.4
      vertex -10.7596 -2.28703 -4.4
      vertex -1.14981 10.9397 -4.4
    endloop
  endfacet
  facet normal 0 0 1
    outer loop
      vertex -4 10.1941 -4.4
      vertex -10.7596 -2.28703 -4.4
      vertex -2 10.759 -4.4
    endloop
  endfacet
  facet normal 0 0 1
    outer loop
      vertex -5.5 9.52628 -4.4
      vertex -7.36044 8.17459 -4.4
      vertex -10.7596 -2.28703 -4.4
    endloop
  endfacet
  facet normal 0 0 1
    outer loop
      vertex -2 17 -4.4
      vertex -4 10.1941 -4.4
      vertex -2 10.759 -4.4
    endloop
  endfacet
  facet normal 0 0 1
    outer loop
      vertex -8.89919 6.46564 -4.4
      vertex -10.7596 -2.28703 -4.4
      vertex -7.36044 8.17459 -4.4
    endloop
  endfacet
  facet normal 0 0 1
    outer loop
      vertex -10.049 4.4741 -4.4
      vertex -10.7596 -2.28703 -4.4
      vertex -8.89919 6.46564 -4.4
    endloop
  endfacet
  facet normal 0 0 1
    outer loop
      vertex -10.7596 2.28703 -4.4
      vertex -10.7596 -2.28703 -4.4
      vertex -10.049 4.4741 -4.4
    endloop
  endfacet
  facet normal 0 0 1
    outer loop
      vertex -11 0 -4.4
      vertex -10.7596 -2.28703 -4.4
      vertex -10.7596 2.28703 -4.4
    endloop
  endfacet
  facet normal 0 0 1
    outer loop
      vertex -4 10.1941 -4.4
      vertex -5.5 9.52628 -4.4
      vertex -10.7596 -2.28703 -4.4
    endloop
  endfacet
  facet normal 0 0 1
    outer loop
      vertex -4 17 -4.4
      vertex -4 10.1941 -4.4
      vertex -2 17 -4.4
    endloop
  endfacet
  facet normal 0.406737 -0.913545 0
    outer loop
      vertex -4 10.1941 -4.4
      vertex -4 10.1941 -0.3
      vertex -5.5 9.52628 -0.3
    endloop
  endfacet
  facet normal 0.406737 -0.913545 0
    outer loop
      vertex -5.5 9.52628 -4.4
      vertex -4 10.1941 -4.4
      vertex -5.5 9.52628 -0.3
    endloop
  endfacet
  facet normal 0.587785 -0.809017 0
    outer loop
      vertex -5.5 9.52628 -4.4
      vertex -5.5 9.52628 -0.3
      vertex -7.36044 8.17459 -0.3
    endloop
  endfacet
  facet normal 0.587785 -0.809017 0
    outer loop
      vertex -7.36044 8.17459 -4.4
      vertex -5.5 9.52628 -4.4
      vertex -7.36044 8.17459 -0.3
    endloop
  endfacet
  facet normal 0.743145 -0.669131 0
    outer loop
      vertex -7.36044 8.17459 -4.4
      vertex -7.36044 8.17459 -0.3
      vertex -8.89919 6.46564 -0.3
    endloop
  endfacet
  facet normal 0.743145 -0.669131 0
    outer loop
      vertex -8.89919 6.46564 -4.4
      vertex -7.36044 8.17459 -4.4
      vertex -8.89919 6.46564 -0.3
    endloop
  endfacet
  facet normal 0.866025 -0.5 0
    outer loop
      vertex -8.89919 6.46564 -4.4
      vertex -8.89919 6.46564 -0.3
      vertex -10.049 4.4741 -0.3
    endloop
  endfacet
  facet normal 0.866025 -0.5 0
    outer loop
      vertex -10.049 4.4741 -4.4
      vertex -8.89919 6.46564 -4.4
      vertex -10.049 4.4741 -0.3
    endloop
  endfacet
  facet normal 0.951056 -0.309017 0
    outer loop
      vertex -10.049 4.4741 -4.4
      vertex -10.049 4.4741 -0.3
      vertex -10.7596 2.28703 -0.3
    endloop
  endfacet
  facet normal 0.951056 -0.309017 0
    outer loop
      vertex -10.7596 2.28703 -4.4
      vertex -10.049 4.4741 -4.4
      vertex -10.7596 2.28703 -0.3
    endloop
  endfacet
  facet normal 0.994522 -0.104528 0
    outer loop
      vertex -10.7596 2.28703 -4.4
      vertex -10.7596 2.28703 -0.3
      vertex -11 0 -0.3
    endloop
  endfacet
  facet normal 0.994522 -0.104528 0
    outer loop
      vertex -11 0 -4.4
      vertex -10.7596 2.28703 -4.4
      vertex -11 0 -0.3
    endloop
  endfacet
  facet normal 0.994522 0.104528 0
    outer loop
      vertex -11 0 -0.3
      vertex -10.7596 -2.28703 -0.3
      vertex -10.7596 -2.28703 -4.4
    endloop
  endfacet
  facet normal 0.994522 0.104528 0
    outer loop
      vertex -11 0 -4.4
      vertex -11 0 -0.3
      vertex -10.7596 -2.28703 -4.4
    endloop
  endfacet
  facet normal 0.951056 0.309017 0
    outer loop
      vertex -10.7596 -2.28703 -0.3
      vertex -10.049 -4.4741 -0.3
      vertex -10.049 -4.4741 -4.4
    endloop
  endfacet
  facet normal 0.951056 0.309017 0
    outer loop
      vertex -10.7596 -2.28703 -4.4
      vertex -10.7596 -2.28703 -0.3
      vertex -10.049 -4.4741 -4.4
    endloop
  endfacet
  facet normal 0.866025 0.5 0
    outer loop
      vertex -10.049 -4.4741 -0.3
      vertex -8.89919 -6.46564 -0.3
      vertex -8.89919 -6.46564 -4.4
    endloop
  endfacet
  facet normal 0.866025 0.5 0
    outer loop
      vertex -10.049 -4.4741 -4.4
      vertex -10.049 -4.4741 -0.3
      vertex -8.89919 -6.46564 -4.4
    endloop
  endfacet
  facet normal 0.743145 0.669131 0
    outer loop
      vertex -8.89919 -6.46564 -0.3
      vertex -7.36044 -8.17459 -0.3
      vertex -7.36044 -8.17459 -4.4
    endloop
  endfacet
  facet normal 0.743145 0.669131 0
    outer loop
      vertex -8.89919 -6.46564 -4.4
      vertex -8.89919 -6.46564 -0.3
      vertex -7.36044 -8.17459 -4.4
    endloop
  endfacet
  facet normal 0.587785 0.809017 0
    outer loop
      vertex -5.5 -9.52628 -0.3
      vertex -5.5 -9.52628 -4.4
      vertex -7.36044 -8.17459 -0.3
    endloop
  endfacet
  facet normal 0.587785 0.809017 0
    outer loop
      vertex -7.36044 -8.17459 -0.3
      vertex -5.5 -9.52628 -4.4
      vertex -7.36044 -8.17459 -4.4
    endloop
  endfacet
  facet normal 0.406737 0.913545 0
    outer loop
      vertex -3.39919 -10.4616 -0.3
      vertex -3.39919 -10.4616 -4.4
      vertex -5.5 -9.52628 -0.3
    endloop
  endfacet
  facet normal 0.406737 0.913545 0
    outer loop
      vertex -5.5 -9.52628 -0.3
      vertex -3.39919 -10.4616 -4.4
      vertex -5.5 -9.52628 -4.4
    endloop
  endfacet
  facet normal 0.207912 0.978148 0
    outer loop
      vertex -1.14981 -10.9397 -0.3
      vertex -1.14981 -10.9397 -4.4
      vertex -3.39919 -10.4616 -0.3
    endloop
  endfacet
  facet normal 0.207912 0.978148 0
    outer loop
      vertex -3.39919 -10.4616 -0.3
      vertex -1.14981 -10.9397 -4.4
      vertex -3.39919 -10.4616 -4.4
    endloop
  endfacet
  facet normal 0 1 0
    outer loop
      vertex 1.14981 -10.9397 -0.3
      vertex 1.14981 -10.9397 -4.4
      vertex -1.14981 -10.9397 -0.3
    endloop
  endfacet
  facet normal 0 1 0
    outer loop
      vertex -1.14981 -10.9397 -0.3
      vertex 1.14981 -10.9397 -4.4
      vertex -1.14981 -10.9397 -4.4
    endloop
  endfacet
  facet normal -0.207912 0.978148 0
    outer loop
      vertex 3.39919 -10.4616 -0.3
      vertex 3.39919 -10.4616 -4.4
      vertex 1.14981 -10.9397 -0.3
    endloop
  endfacet
  facet normal -0.207912 0.978148 0
    outer loop
      vertex 1.14981 -10.9397 -0.3
      vertex 3.39919 -10.4616 -4.4
      vertex 1.14981 -10.9397 -4.4
    endloop
  endfacet
  facet normal -0.406737 0.913545 0
    outer loop
      vertex 5.5 -9.52628 -0.3
      vertex 5.5 -9.52628 -4.4
      vertex 3.39919 -10.4616 -0.3
    endloop
  endfacet
  facet normal -0.406737 0.913545 0
    outer loop
      vertex 3.39919 -10.4616 -0.3
      vertex 5.5 -9.52628 -4.4
      vertex 3.39919 -10.4616 -4.4
    endloop
  endfacet
  facet normal -0.587785 0.809017 0
    outer loop
      vertex 7.36044 -8.17459 -0.3
      vertex 7.36044 -8.17459 -4.4
      vertex 5.5 -9.52628 -0.3
    endloop
  endfacet
  facet normal -0.587785 0.809017 0
    outer loop
      vertex 5.5 -9.52628 -0.3
      vertex 7.36044 -8.17459 -4.4
      vertex 5.5 -9.52628 -4.4
    endloop
  endfacet
  facet normal -0.743145 0.669131 0
    outer loop
      vertex 8.89919 -6.46564 -0.3
      vertex 8.89919 -6.46564 -4.4
      vertex 7.36044 -8.17459 -0.3
    endloop
  endfacet
  facet normal -0.743145 0.669131 0
    outer loop
      vertex 7.36044 -8.17459 -0.3
      vertex 8.89919 -6.46564 -4.4
      vertex 7.36044 -8.17459 -4.4
    endloop
  endfacet
  facet normal -0.866025 0.5 0
    outer loop
      vertex 10.049 -4.4741 -0.3
      vertex 10.049 -4.4741 -4.4
      vertex 8.89919 -6.46564 -0.3
    endloop
  endfacet
  facet normal -0.866025 0.5 0
    outer loop
      vertex 8.89919 -6.46564 -0.3
      vertex 10.049 -4.4741 -4.4
      vertex 8.89919 -6.46564 -4.4
    endloop
  endfacet
  facet normal -0.951056 0.309017 0
    outer loop
      vertex 10.7596 -2.28703 -0.3
      vertex 10.7596 -2.28703 -4.4
      vertex 10.049 -4.4741 -0.3
    endloop
  endfacet
  facet normal -0.951056 0.309017 0
    outer loop
      vertex 10.049 -4.4741 -0.3
      vertex 10.7596 -2.28703 -4.4
      vertex 10.049 -4.4741 -4.4
    endloop
  endfacet
  facet normal -0.994522 0.104528 0
    outer loop
      vertex 11 0 -0.3
      vertex 11 0 -4.4
      vertex 10.7596 -2.28703 -0.3
    endloop
  endfacet
  facet normal -0.994522 0.104528 0
    outer loop
      vertex 10.7596 -2.28703 -0.3
      vertex 11 0 -4.4
      vertex 10.7596 -2.28703 -4.4
    endloop
  endfacet
  facet normal -0.994522 -0.104528 0
    outer loop
      vertex 11 0 -0.3
      vertex 10.7596 2.28703 -0.3
      vertex 11 0 -4.4
    endloop
  endfacet
  facet normal -0.994522 -0.104528 0
    outer loop
      vertex 11 0 -4.4
      vertex 10.7596 2.28703 -0.3
      vertex 10.7596 2.28703 -4.4
    endloop
  endfacet
  facet normal -0.951056 -0.309017 0
    outer loop
      vertex 10.7596 2.28703 -0.3
      vertex 10.049 4.4741 -0.3
      vertex 10.7596 2.28703 -4.4
    endloop
  endfacet
  facet normal -0.951056 -0.309017 0
    outer loop
      vertex 10.7596 2.28703 -4.4
      vertex 10.049 4.4741 -0.3
      vertex 10.049 4.4741 -4.4
    endloop
  endfacet
  facet normal -0.866025 -0.5 0
    outer loop
      vertex 10.049 4.4741 -0.3
      vertex 8.89919 6.46564 -0.3
      vertex 10.049 4.4741 -4.4
    endloop
  endfacet
  facet normal -0.866025 -0.5 0
    outer loop
      vertex 10.049 4.4741 -4.4
      vertex 8.89919 6.46564 -0.3
      vertex 8.89919 6.46564 -4.4
    endloop
  endfacet
  facet normal -0.743145 -0.669131 0
    outer loop
      vertex 8.89919 6.46564 -0.3
      vertex 7.36044 8.17459 -0.3
      vertex 8.89919 6.46564 -4.4
    endloop
  endfacet
  facet normal -0.743145 -0.669131 0
    outer loop
      vertex 8.89919 6.46564 -4.4
      vertex 7.36044 8.17459 -0.3
      vertex 7.36044 8.17459 -4.4
    endloop
  endfacet
  facet normal -0.587785 -0.809017 0
    outer loop
      vertex 7.36044 8.17459 -4.4
      vertex 7.36044 8.17459 -0.3
      vertex 5.5 9.52628 -0.3
    endloop
  endfacet
  facet normal -0.587785 -0.809017 0
    outer loop
      vertex 5.5 9.52628 -4.4
      vertex 7.36044 8.17459 -4.4
      vertex 5.5 9.52628 -0.3
    endloop
  endfacet
  facet normal -0.406737 -0.913545 0
    outer loop
      vertex 5.5 9.52628 -4.4
      vertex 5.5 9.52628 -0.3
      vertex 3.39919 10.4616 -0.3
    endloop
  endfacet
  facet normal -0.406737 -0.913545 0
    outer loop
      vertex 3.39919 10.4616 -4.4
      vertex 5.5 9.52628 -4.4
      vertex 3.39919 10.4616 -0.3
    endloop
  endfacet
  facet normal -0.207912 -0.978148 0
    outer loop
      vertex 3.39919 10.4616 -4.4
      vertex 3.39919 10.4616 -0.3
      vertex 1.14981 10.9397 -0.3
    endloop
  endfacet
  facet normal -0.207912 -0.978148 0
    outer loop
      vertex 1.14981 10.9397 -4.4
      vertex 3.39919 10.4616 -4.4
      vertex 1.14981 10.9397 -0.3
    endloop
  endfacet
  facet normal 0 -1 0
    outer loop
      vertex 1.14981 10.9397 -4.4
      vertex 1.14981 10.9397 -0.3
      vertex -1.14981 10.9397 -0.3
    endloop
  endfacet
  facet normal 0 -1 0
    outer loop
      vertex -1.14981 10.9397 -4.4
      vertex 1.14981 10.9397 -4.4
      vertex -1.14981 10.9397 -0.3
    endloop
  endfacet
  facet normal 0.207912 -0.978148 0
    outer loop
      vertex -1.14981 10.9397 -4.4
      vertex -1.14981 10.9397 -0.3
      vertex -2 10.759 -0.3
    endloop
  endfacet
  facet normal 0.207912 -0.978148 0
    outer loop
      vertex -2 10.759 -4.4
      vertex -1.14981 10.9397 -4.4
      vertex -2 10.759 -0.3
    endloop
  endfacet
endsolid OpenSCAD_Model
