solid OpenSCAD_Model
  facet normal -1 0 0
    outer loop
      vertex 0 0 0
      vertex 0 0 13
      vertex 0 88 0
    endloop
  endfacet
  facet normal -1 0 0
    outer loop
      vertex 0 88 0
      vertex 0 0 13
      vertex 0 88 13
    endloop
  endfacet
  facet normal 0 -1 0
    outer loop
      vertex 0 0 13
      vertex 0 0 0
      vertex 25 0 0
    endloop
  endfacet
  facet normal 0 -1 0
    outer loop
      vertex 25 0 13
      vertex 0 0 13
      vertex 25 0 0
    endloop
  endfacet
  facet normal 0 0 -1
    outer loop
      vertex 0 0 0
      vertex 0 88 0
      vertex 25 0 0
    endloop
  endfacet
  facet normal 0 0 -1
    outer loop
      vertex 25 0 0
      vertex 0 88 0
      vertex 25 88 0
    endloop
  endfacet
  facet normal 0 1 0
    outer loop
      vertex 0 88 0
      vertex 0 88 13
      vertex 25 88 0
    endloop
  endfacet
  facet normal 0 1 0
    outer loop
      vertex 25 88 0
      vertex 0 88 13
      vertex 25 88 13
    endloop
  endfacet
  facet normal 0 0 1
    outer loop
      vertex 1.5 1.5 13
      vertex 0 0 13
      vertex 25 0 13
    endloop
  endfacet
  facet normal 0 0 1
    outer loop
      vertex 23.5 1.5 13
      vertex 1.5 1.5 13
      vertex 25 0 13
    endloop
  endfacet
  facet normal 0 0 1
    outer loop
      vertex 0 88 13
      vertex 0 0 13
      vertex 1.5 1.5 13
    endloop
  endfacet
  facet normal 0 0 1
    outer loop
      vertex 25 88 13
      vertex 0 88 13
      vertex 1.5 86.5 13
    endloop
  endfacet
  facet normal 0 0 1
    outer loop
      vertex 25 88 13
      vertex 23.5 86.5 13
      vertex 25 0 13
    endloop
  endfacet
  facet normal 0 0 1
    outer loop
      vertex 25 88 13
      vertex 1.5 86.5 13
      vertex 23.5 86.5 13
    endloop
  endfacet
  facet normal 0 0 1
    outer loop
      vertex 23.5 86.5 13
      vertex 23.5 1.5 13
      vertex 25 0 13
    endloop
  endfacet
  facet normal 0 0 1
    outer loop
      vertex 1.5 1.5 13
      vertex 1.5 86.5 13
      vertex 0 88 13
    endloop
  endfacet
  facet normal 1 0 0
    outer loop
      vertex 25 0 13
      vertex 25 0 0
      vertex 25 88 0
    endloop
  endfacet
  facet normal 1 0 0
    outer loop
      vertex 25 88 13
      vertex 25 0 13
      vertex 25 88 0
    endloop
  endfacet
  facet normal 1 0 0
    outer loop
      vertex 1.5 86.5 1.5
      vertex 1.5 86.5 13
      vertex 1.5 1.5 13
    endloop
  endfacet
  facet normal 1 0 0
    outer loop
      vertex 1.5 1.5 1.5
      vertex 1.5 86.5 1.5
      vertex 1.5 1.5 13
    endloop
  endfacet
  facet normal 0 1 0
    outer loop
      vertex 23.5 1.5 13
      vertex 23.5 1.5 1.5
      vertex 1.5 1.5 13
    endloop
  endfacet
  facet normal 0 1 0
    outer loop
      vertex 1.5 1.5 13
      vertex 23.5 1.5 1.5
      vertex 1.5 1.5 1.5
    endloop
  endfacet
  facet normal -1 0 0
    outer loop
      vertex 23.5 86.5 13
      vertex 23.5 86.5 1.5
      vertex 23.5 1.5 13
    endloop
  endfacet
  facet normal -1 0 0
    outer loop
      vertex 23.5 1.5 13
      vertex 23.5 86.5 1.5
      vertex 23.5 1.5 1.5
    endloop
  endfacet
  facet normal 0 -1 0
    outer loop
      vertex 23.5 86.5 1.5
      vertex 23.5 86.5 13
      vertex 1.5 86.5 13
    endloop
  endfacet
  facet normal 0 -1 0
    outer loop
      vertex 1.5 86.5 1.5
      vertex 23.5 86.5 1.5
      vertex 1.5 86.5 13
    endloop
  endfacet
  facet normal 0 0 1
    outer loop
      vertex 23.5 1.5 1.5
      vertex 23.5 86.5 1.5
      vertex 1.5 86.5 1.5
    endloop
  endfacet
  facet normal 0 0 1
    outer loop
      vertex 1.5 1.5 1.5
      vertex 23.5 1.5 1.5
      vertex 1.5 86.5 1.5
    endloop
  endfacet
endsolid OpenSCAD_Model
