solid OpenSCAD_Model
  facet normal -1 0 0
    outer loop
      vertex 0 0 0
      vertex 0 0 16
      vertex 0 66 0
    endloop
  endfacet
  facet normal -1 0 0
    outer loop
      vertex 0 66 0
      vertex 0 0 16
      vertex 0 66 16
    endloop
  endfacet
  facet normal 0 -1 0
    outer loop
      vertex 0 0 16
      vertex 0 0 0
      vertex 28 0 0
    endloop
  endfacet
  facet normal 0 -1 0
    outer loop
      vertex 28 0 16
      vertex 0 0 16
      vertex 28 0 0
    endloop
  endfacet
  facet normal 0 0 -1
    outer loop
      vertex 0 0 0
      vertex 0 66 0
      vertex 28 0 0
    endloop
  endfacet
  facet normal 0 0 -1
    outer loop
      vertex 28 0 0
      vertex 0 66 0
      vertex 28 66 0
    endloop
  endfacet
  facet normal 0 1 0
    outer loop
      vertex 0 66 0
      vertex 0 66 16
      vertex 28 66 0
    endloop
  endfacet
  facet normal 0 1 0
    outer loop
      vertex 28 66 0
      vertex 0 66 16
      vertex 28 66 16
    endloop
  endfacet
  facet normal 0 0 1
    outer loop
      vertex 3 3 16
      vertex 0 0 16
      vertex 28 0 16
    endloop
  endfacet
  facet normal 0 0 1
    outer loop
      vertex 25 3 16
      vertex 3 3 16
      vertex 28 0 16
    endloop
  endfacet
  facet normal 0 0 1
    outer loop
      vertex 0 66 16
      vertex 0 0 16
      vertex 3 3 16
    endloop
  endfacet
  facet normal 0 0 1
    outer loop
      vertex 28 66 16
      vertex 0 66 16
      vertex 3 63 16
    endloop
  endfacet
  facet normal 0 0 1
    outer loop
      vertex 28 66 16
      vertex 25 63 16
      vertex 28 0 16
    endloop
  endfacet
  facet normal 0 0 1
    outer loop
      vertex 28 66 16
      vertex 3 63 16
      vertex 25 63 16
    endloop
  endfacet
  facet normal 0 0 1
    outer loop
      vertex 25 63 16
      vertex 25 3 16
      vertex 28 0 16
    endloop
  endfacet
  facet normal 0 0 1
    outer loop
      vertex 3 3 16
      vertex 3 63 16
      vertex 0 66 16
    endloop
  endfacet
  facet normal 1 0 0
    outer loop
      vertex 28 0 16
      vertex 28 0 0
      vertex 28 66 0
    endloop
  endfacet
  facet normal 1 0 0
    outer loop
      vertex 28 66 16
      vertex 28 0 16
      vertex 28 66 0
    endloop
  endfacet
  facet normal 1 0 0
    outer loop
      vertex 3 63 3
      vertex 3 63 16
      vertex 3 3 16
    endloop
  endfacet
  facet normal 1 0 0
    outer loop
      vertex 3 3 3
      vertex 3 63 3
      vertex 3 3 16
    endloop
  endfacet
  facet normal 0 1 0
    outer loop
      vertex 25 3 16
      vertex 25 3 3
      vertex 3 3 16
    endloop
  endfacet
  facet normal 0 1 0
    outer loop
      vertex 3 3 16
      vertex 25 3 3
      vertex 3 3 3
    endloop
  endfacet
  facet normal -1 0 0
    outer loop
      vertex 25 63 16
      vertex 25 63 3
      vertex 25 3 16
    endloop
  endfacet
  facet normal -1 0 0
    outer loop
      vertex 25 3 16
      vertex 25 63 3
      vertex 25 3 3
    endloop
  endfacet
  facet normal 0 -1 0
    outer loop
      vertex 25 63 3
      vertex 25 63 16
      vertex 3 63 16
    endloop
  endfacet
  facet normal 0 -1 0
    outer loop
      vertex 3 63 3
      vertex 25 63 3
      vertex 3 63 16
    endloop
  endfacet
  facet normal 0 0 1
    outer loop
      vertex 25 3 3
      vertex 25 63 3
      vertex 3 63 3
    endloop
  endfacet
  facet normal 0 0 1
    outer loop
      vertex 3 3 3
      vertex 25 3 3
      vertex 3 63 3
    endloop
  endfacet
endsolid OpenSCAD_Model
